<svg width="1280" height="1280" xmlns="http://www.w3.org/2000/svg" preserveAspectRatio="xMidYMid meet" version="1.0">
 <metadata>Created by potrace 1.15, written by Peter Selinger 2001-2017</metadata>

 <g>
  <title>Layer 1</title>
  <g id="svg_1" fill="#000000" transform="translate(0 1280) scale(0.1 -0.1)">
   <path fill="#ffffff" id="svg_2" d="m0,11645l0,-1155l1155,0l1155,0l0,1155l0,1155l-1155,0l-1155,0l0,-1155zm1820,0l0,-665l-665,0l-665,0l0,665l0,665l665,0l665,0l0,-665z"/>
   <path fill="#ffffff" id="svg_3" d="m2738,11433l-3,-1368l-1367,-3l-1368,-2l0,-5030l0,-5030l245,0l245,0l0,2735l0,2735l440,0l440,0l0,-1595l0,-1595l930,0l930,0l-2,243l-3,242l-682,3l-683,2l0,1350l0,1350l683,2l682,3l0,1610l0,1610l-927,3l-928,2l0,-930l0,-930l245,0l245,0l0,685l0,685l438,-2l437,-3l3,-1122l2,-1123l-1125,0l-1125,0l0,1805l0,1805l1368,2l1367,3l3,1368l2,1367l1805,0l1805,0l0,-440l0,-440l-1370,0l-1370,0l3,-927l2,-928l1610,0l1610,0l3,683l2,682l1350,0l1350,0l2,-682l3,-683l243,-3l242,-2l0,930l0,930l-1595,0l-1595,0l0,440l0,440l2735,0l2735,0l0,245l0,245l-5030,0l-5030,0l-2,-1367zm4102,-933l0,-440l-1122,2l-1123,3l-3,438l-2,437l1125,0l1125,0l0,-440z"/>
   <path fill="#ffffff" id="svg_4" d="m4106,8691c-3,-5 -5,-526 -3,-1157l2,-1149l1155,0l1155,0l0,1155l0,1155l-1152,2c-667,2 -1154,-1 -1157,-6zm1824,-1151l0,-670l-670,0l-670,0l0,670l0,670l670,0l670,0l0,-670z"/>
  </g>
 </g>
</svg>